<?xml version="1.0" encoding="UTF-8"?>
<!DOCTYPE svg PUBLIC "-//W3C//DTD SVG 1.1//EN" "http://www.w3.org/Graphics/SVG/1.1/DTD/svg11.dtd">
<svg xmlns="http://www.w3.org/2000/svg" version="1.1" width="512px" height="512px" style="shape-rendering:geometricPrecision; text-rendering:geometricPrecision; image-rendering:optimizeQuality; fill-rule:evenodd; clip-rule:evenodd" xmlns:xlink="http://www.w3.org/1999/xlink">
<g><path style="opacity:0.996" fill="#e45538" d="M 447.5,-0.5 C 455.167,-0.5 462.833,-0.5 470.5,-0.5C 481.312,2.23946 490.645,7.5728 498.5,15.5C 497.448,15.3505 496.448,15.5172 495.5,16C 460.299,51.3681 424.965,86.5348 389.5,121.5C 389.167,121.5 388.833,121.5 388.5,121.5C 361.833,94.5 335.167,67.5 308.5,40.5C 352.478,18.5919 398.811,4.92521 447.5,-0.5 Z"/></g>
<g><path style="opacity:1" fill="#cf4529" d="M 498.5,15.5 C 504.706,22.9139 509.039,31.2472 511.5,40.5C 511.5,48.1667 511.5,55.8333 511.5,63.5C 506.075,112.189 492.408,158.522 470.5,202.5C 443.167,175.833 416.167,148.833 389.5,121.5C 424.965,86.5348 460.299,51.3681 495.5,16C 496.448,15.5172 497.448,15.3505 498.5,15.5 Z"/></g>
<g><path style="opacity:0.998" fill="#e5edfe" d="M 308.5,40.5 C 335.167,67.5 361.833,94.5 388.5,121.5C 372.5,138.167 356.167,154.5 339.5,170.5C 310.343,146.635 280.343,145.469 249.5,167C 223.934,190.78 218.434,218.613 233,250.5C 235.931,256.255 239.764,261.255 244.5,265.5C 244.5,265.833 244.5,266.167 244.5,266.5C 216.673,293.493 189.34,320.993 162.5,349C 161.552,349.483 160.552,349.649 159.5,349.5C 139.5,330.167 119.833,310.5 100.5,290.5C 101.563,284.647 103.229,278.98 105.5,273.5C 122.036,226.072 146.036,183.072 177.5,144.5C 214.135,100.853 257.802,66.1859 308.5,40.5 Z"/></g>
<g><path style="opacity:1" fill="#dae1f1" d="M 388.5,121.5 C 388.833,121.5 389.167,121.5 389.5,121.5C 416.167,148.833 443.167,175.833 470.5,202.5C 444.814,253.198 410.147,296.865 366.5,333.5C 327.659,364.968 284.659,389.301 237.5,406.5C 231.833,407.833 226.167,409.167 220.5,410.5C 200.527,390.861 180.527,371.194 160.5,351.5C 160.167,350.833 159.833,350.167 159.5,349.5C 160.552,349.649 161.552,349.483 162.5,349C 189.34,320.993 216.673,293.493 244.5,266.5C 267.706,287.121 293.706,291.288 322.5,279C 354.777,259.18 365.61,231.013 355,194.5C 351.875,185.906 347.041,178.572 340.5,172.5C 340.167,171.833 339.833,171.167 339.5,170.5C 356.167,154.5 372.5,138.167 388.5,121.5 Z"/></g>
<g><path style="opacity:0.992" fill="#e55639" d="M 177.5,144.5 C 146.036,183.072 122.036,226.072 105.5,273.5C 90.6823,272.846 76.0156,274.012 61.5,277C 46.1616,281.426 30.9949,286.259 16,291.5C 8.20271,291.191 2.70271,287.525 -0.5,280.5C -0.5,276.5 -0.5,272.5 -0.5,268.5C 36.2575,195.094 95.5908,153.761 177.5,144.5 Z"/></g>
<g><path style="opacity:1" fill="#4da6fe" d="M 339.5,170.5 C 339.833,171.167 340.167,171.833 340.5,172.5C 339.448,172.351 338.448,172.517 337.5,173C 306.632,204.035 275.632,234.868 244.5,265.5C 239.764,261.255 235.931,256.255 233,250.5C 218.434,218.613 223.934,190.78 249.5,167C 280.343,145.469 310.343,146.635 339.5,170.5 Z"/></g>
<g><path style="opacity:1" fill="#4596e6" d="M 340.5,172.5 C 347.041,178.572 351.875,185.906 355,194.5C 365.61,231.013 354.777,259.18 322.5,279C 293.706,291.288 267.706,287.121 244.5,266.5C 244.5,266.167 244.5,265.833 244.5,265.5C 275.632,234.868 306.632,204.035 337.5,173C 338.448,172.517 339.448,172.351 340.5,172.5 Z"/></g>
<g><path style="opacity:1" fill="#e5563a" d="M 100.5,290.5 C 119.833,310.5 139.5,330.167 159.5,349.5C 159.833,350.167 160.167,350.833 160.5,351.5C 141.167,370.167 122.167,389.167 103.5,408.5C 102.833,408.167 102.167,407.833 101.5,407.5C 90.7809,395.78 79.4476,384.78 67.5,374.5C 58.869,365.368 50.0356,356.368 41,347.5C 36.2557,337.49 38.0891,328.99 46.5,322C 64.391,311.224 82.391,300.724 100.5,290.5 Z"/></g>
<g><path style="opacity:0.994" fill="#cf4529" d="M 366.5,333.5 C 357.239,415.409 315.906,474.743 242.5,511.5C 238.5,511.5 234.5,511.5 230.5,511.5C 221.402,506.967 217.902,499.634 220,489.5C 232.932,463.343 238.765,435.676 237.5,406.5C 284.659,389.301 327.659,364.968 366.5,333.5 Z"/></g>
<g><path style="opacity:1" fill="#cf4529" d="M 160.5,351.5 C 180.527,371.194 200.527,390.861 220.5,410.5C 210.276,428.609 199.776,446.609 189,464.5C 182.01,472.911 173.51,474.744 163.5,470C 154.631,461.298 145.964,452.465 137.5,443.5C 126.167,431.833 114.833,420.167 103.5,408.5C 122.167,389.167 141.167,370.167 160.5,351.5 Z"/></g>
<g><path style="opacity:0.987" fill="#fedd33" d="M 67.5,374.5 C 79.4476,384.78 90.7809,395.78 101.5,407.5C 101.649,408.552 101.483,409.552 101,410.5C 77.9384,433.729 54.7717,456.729 31.5,479.5C 29.5491,478.284 28.0491,476.618 27,474.5C 23.0559,464.28 23.0559,453.947 27,443.5C 36.9557,418.231 50.4557,395.231 67.5,374.5 Z"/></g>
<g><path style="opacity:1" fill="#febc33" d="M 101.5,407.5 C 102.167,407.833 102.833,408.167 103.5,408.5C 114.833,420.167 126.167,431.833 137.5,443.5C 118.325,458.264 97.6581,470.764 75.5,481C 62.8308,486.921 49.8308,487.921 36.5,484C 34.3825,482.951 32.7158,481.451 31.5,479.5C 54.7717,456.729 77.9384,433.729 101,410.5C 101.483,409.552 101.649,408.552 101.5,407.5 Z"/></g>
</svg>
